<svg id="Capa_1" enable-background="new 0 0 512 512" height="512" viewBox="0 0 512 512" width="512" xmlns="http://www.w3.org/2000/svg"><g><g><path clip-rule="evenodd" d="m273.263 382.763-61.561-20.678-55.51 20.678-14.878 45.908 73.413 15.91 73.414-15.91z" fill="#818b95" fill-rule="evenodd"/></g><g><path clip-rule="evenodd" d="m345.991 88.536h-262.527-78.709c-2.625 0-4.755 2.188-4.755 4.871v247.999l223.867 20.679 205.587-20.679v-247.999c0-2.683-2.13-4.871-4.755-4.871z" fill="#c3ddff" fill-rule="evenodd"/></g><g><path clip-rule="evenodd" d="m258.793 239.325c-9.89-2.683-12.515-15.458-14.528-19.6-18.35-16.216-36.729-13.562-59.075 0-2.013 4.142-4.638 16.916-14.528 19.6-.233.058-.438.117-.671.175 9.394 14.816 25.906 35.641 44.722 35.641 18.846 0 35.358-20.825 44.751-35.641-.234-.059-.438-.117-.671-.175z" fill="#c38c66" fill-rule="evenodd"/></g><g><path clip-rule="evenodd" d="m328.604 294.536c0-40.949-41.075-47.453-69.14-55.036-9.394 14.816-25.906 24.645-44.751 24.645-18.817 0-35.328-9.829-44.722-24.645-28.064 7.583-69.14 14.087-69.14 55.036v46.87l118.602 16.582 109.15-16.582v-46.87z" fill="#ccf49f" fill-rule="evenodd"/></g><g><path clip-rule="evenodd" d="m288.141 428.671h-146.827-13.828c-8.752 0-15.899 7.175-15.899 15.925v11.871c0 2.217 1.809 4.025 4.026 4.025h198.23c2.217 0 4.026-1.808 4.026-4.025v-11.871c0-8.75-7.147-15.925-15.899-15.925z" fill="#eceaed" fill-rule="evenodd"/></g><g><path clip-rule="evenodd" d="m156.192 382.763-5.426 16.771h105.197l9.423 29.137h22.755l-14.878-45.908z" fill="#576b74" fill-rule="evenodd"/></g><g><path clip-rule="evenodd" d="m301.969 428.671h-27.685-8.898c8.752 0 15.928 7.175 15.928 15.925v11.871c0 2.217-1.838 4.025-4.055 4.025h36.583c2.217 0 4.026-1.808 4.026-4.025v-11.871c0-8.75-7.147-15.925-15.899-15.925z" fill="#dad8db" fill-rule="evenodd"/></g><g><path clip-rule="evenodd" d="m429.454 341.406v-247.999c0-2.683-2.13-4.871-4.755-4.871h-37.37c2.596 0 4.755 2.187 4.755 4.871v247.999z" fill="#9dc6fb" fill-rule="evenodd"/></g><g><path d="m279.068 349.133c-4.268 0-7.726-3.459-7.726-7.726v-22.925c0-4.268 3.459-7.726 7.726-7.726s7.726 3.459 7.726 7.726v22.925c.001 4.267-3.458 7.726-7.726 7.726z" fill="#b3e59e"/></g><g><path d="m150.386 349.133c-4.268 0-7.726-3.459-7.726-7.726v-22.925c0-4.268 3.459-7.726 7.726-7.726s7.726 3.459 7.726 7.726v22.925c.001 4.267-3.458 7.726-7.726 7.726z" fill="#b3e59e"/></g><g><path clip-rule="evenodd" d="m328.604 294.536c0-40.949-41.075-47.453-69.14-55.036-3.588 5.629-8.168 10.529-13.536 14.466.846.204 1.692.437 2.538.671 26.051 6.825 55.458 16.8 55.458 51.449v35.32h24.68z" fill="#b3e59e" fill-rule="evenodd"/></g><g><path clip-rule="evenodd" d="m231.458 226.083c-12.048 4.462-21.413 4.462-33.461 0-4.434-1.633-8.723-3.792-12.807-6.358-1.284 2.625-2.801 8.75-6.301 13.533-4.201 5.804 28.735 14.7 44.985 8.662 10.852-4.025 11.232-4.171 13.099.088 1.838 4.258 4.347 9.333 8.956 11.958 5.368-3.937 9.948-8.837 13.536-14.466-.175-.029-.35-.087-.525-.146l-.146-.029c-9.89-2.683-12.515-15.458-14.528-19.6-4.085 2.567-8.403 4.725-12.808 6.358z" fill="#b57f5f" fill-rule="evenodd"/></g><g><path clip-rule="evenodd" d="m244.265 219.725c21.384-13.358 37.254-37.77 37.254-57.895v-24.879c-16.247-31.822-31.813-39.713-54.707-40.007-56.821-.73-71.426 24.101-78.876 40.707v24.179c0 20.125 15.87 44.537 37.254 57.895 4.084 2.567 8.373 4.725 12.807 6.358 12.048 4.462 21.413 4.462 33.461 0 4.405-1.633 8.723-3.791 12.807-6.358z" fill="#d19a6e" fill-rule="evenodd"/></g><g><path clip-rule="evenodd" d="m288.17 53.508c-56.187 18.841-73.457-15.021-103.243 21.816-15.549.437-24.593 5.396-29.815 13.212-7.935 11.812-7.177 30.129-7.177 49.116 7.001-7.379 27.568-22.925 50.527-17.15 22.201 5.6 22.346 28.437 83.055 16.45 13.915-12.891 18.992-31.354 18.233-48.416-.611-13.795-5.016-26.687-11.58-35.028z" fill="#818b95" fill-rule="evenodd"/></g><g><path clip-rule="evenodd" d="m244.265 219.725c21.384-13.358 37.254-37.77 37.254-57.895v-24.879c-7.468 1.458-14.032 2.421-19.838 2.946v12.25c0 20.095-15.87 44.537-37.283 57.895-4.084 2.567-8.373 4.696-12.778 6.329-10.706 3.967-19.254 4.433-29.465 1.371.992.671 2.013 1.342 3.034 1.983 4.084 2.567 8.373 4.725 12.807 6.358 12.048 4.462 21.413 4.462 33.461 0 4.406-1.633 8.724-3.791 12.808-6.358z" fill="#c38c66" fill-rule="evenodd"/></g><g><path clip-rule="evenodd" d="m299.752 88.536c-.613-13.796-5.018-26.687-11.582-35.028-6.71 2.246-12.865 3.762-18.554 4.696 5.397 7.7 9.102 18.579 10.094 30.333.087.962.146 1.954.175 2.946.759 17.091-4.288 35.524-18.204 48.416 5.805-.525 12.369-1.487 19.838-2.946 13.915-12.892 18.991-31.355 18.233-48.417z" fill="#576b74" fill-rule="evenodd"/></g><g><path d="m188.69 175.244c-4.268 0-7.726-3.459-7.726-7.726v-3.733c0-4.268 3.459-7.726 7.726-7.726s7.726 3.459 7.726 7.726v3.733c.001 4.268-3.458 7.726-7.726 7.726z" fill="#818b95"/></g><g><path d="m240.793 175.244c-4.268 0-7.726-3.459-7.726-7.726v-3.733c0-4.268 3.459-7.726 7.726-7.726s7.726 3.459 7.726 7.726v3.733c0 4.268-3.459 7.726-7.726 7.726z" fill="#818b95"/></g><g><path clip-rule="evenodd" d="m426.275 113.123c10.035-9.041 25.176-11.462 34.57-1.75 10.327 10.704 10.327 28.204 0 38.908l-4.201 4.142-30.719 30.449c-1.342 1.05-1.984 1.633-2.655 1.662-.671-.029-1.313-.612-2.655-1.662l-30.719-30.449-4.201-4.142c-10.327-10.704-10.327-28.204 0-38.908 9.394-9.712 24.564-7.292 34.57 1.75 1.867 1.662 2.509 2.479 3.005 2.479s1.167-.816 3.005-2.479zm-26.081 112.727c47.289 12.746 95.979-15.254 108.727-62.561 12.749-47.278-15.257-95.956-62.547-108.702-47.318-12.746-96.008 15.254-108.757 62.532-6.972 25.899-1.75 52.178 12.194 72.798 4.084 10.937-1.78 23.77-10.852 33.074 5.543 5.629 33.87 11.725 45.977-2.8 4.814 2.305 9.919 4.201 15.258 5.659z" fill="#ffe07d" fill-rule="evenodd"/></g><g><path clip-rule="evenodd" d="m425.924 184.872 30.719-30.449 4.201-4.142c10.327-10.704 10.327-28.204 0-38.908-9.394-9.712-24.534-7.292-34.57 1.75-1.838 1.662-2.509 2.479-3.005 2.479s-1.138-.817-3.005-2.479c-10.006-9.041-25.176-11.462-34.57-1.75-10.327 10.704-10.327 28.204 0 38.908l4.201 4.142 30.719 30.449c1.342 1.05 1.984 1.633 2.655 1.662.672-.029 1.313-.612 2.655-1.662z" fill="#ff8086" fill-rule="evenodd"/></g><g><path clip-rule="evenodd" d="m460.844 150.281c10.327-10.704 10.327-28.204 0-38.908-6.651-6.883-16.191-7.671-24.768-4.346.379.35.758.729 1.138 1.108 10.327 10.704 10.327 28.204 0 38.908l-4.201 4.142-23.192 22.983 10.794 10.704c1.342 1.05 1.984 1.633 2.655 1.662.671-.029 1.313-.612 2.655-1.662l30.719-30.449z" fill="#e5646e" fill-rule="evenodd"/></g><g><path clip-rule="evenodd" d="m508.921 163.289c12.749-47.278-15.257-95.956-62.547-108.702-9.802-2.625-19.633-3.529-29.202-2.858h.087c47.289 12.746 75.295 61.424 62.547 108.731-10.123 37.508-42.826 62.882-79.555 65.39 47.291 12.716 95.922-15.283 108.67-62.561z" fill="#ffd064" fill-rule="evenodd"/></g><g><path clip-rule="evenodd" d="m354.626 341.406h-277.901-76.725v36.487c0 2.683 2.13 4.871 4.755 4.871h151.437 117.071 151.437c2.626 0 4.755-2.187 4.755-4.871v-36.487z" fill="#eceaed" fill-rule="evenodd"/></g><g><path clip-rule="evenodd" d="m392.055 341.406v36.487c0 2.683-2.13 4.871-4.726 4.871h37.37c2.626 0 4.755-2.187 4.755-4.871v-36.487z" fill="#dad8db" fill-rule="evenodd"/></g></g></svg>