<?xml version="1.0" encoding="iso-8859-1"?>
<!-- Generator: Adobe Illustrator 19.0.0, SVG Export Plug-In . SVG Version: 6.00 Build 0)  -->
<svg version="1.1" id="Capa_1" xmlns="http://www.w3.org/2000/svg" xmlns:xlink="http://www.w3.org/1999/xlink" x="0px" y="0px"
	 viewBox="0 0 512 512" style="enable-background:new 0 0 512 512;" xml:space="preserve">
<g>
	<polyline style="fill:#76FFD9;" points="256.096,372.102 256.096,421.423 8.611,421.423 8.611,110.808 39.414,110.808 	"/>
	<polyline style="fill:#76FFD9;" points="256.096,372.102 256.096,421.423 503.582,421.423 503.582,110.808 472.779,110.808 	"/>
</g>
<g>
	<path style="fill:#FFFFFF;" d="M256.096,391.221V130.99c0-22.292-18.071-40.363-40.363-40.363H39.414v260.231h176.32
		C238.026,350.859,256.096,368.93,256.096,391.221L256.096,391.221z"/>
	<path style="fill:#FFFFFF;" d="M256.096,391.221V130.99c0-22.292,18.071-40.363,40.363-40.363h176.32v260.231H296.458
		C274.167,350.859,256.096,368.93,256.096,391.221L256.096,391.221z"/>
</g>
<polyline style="fill:#E1EAF8;" points="472.779,350.859 472.779,391.221 256.096,391.221 39.414,391.221 39.414,350.859 "/>
<rect x="75.018" y="128.124" style="fill:#FFA816;" width="133.96" height="77.197"/>
<rect x="75.018" y="236.167" style="fill:#FFC843;" width="133.96" height="77.197"/>
<rect x="303.204" y="128.124" style="fill:#76FFD9;" width="133.96" height="77.197"/>
<rect x="303.204" y="236.167" style="fill:#5DE0BF;" width="133.96" height="77.197"/>
<path style="fill:#434C54;" d="M503.486,146.769c4.703,0,8.514-3.812,8.514-8.514v-27.471c0-4.702-3.811-8.514-8.514-8.514h-22.288
	V90.602c0-4.702-3.811-8.514-8.514-8.514h-176.32c-16.748,0-31.551,8.471-40.363,21.35c-8.811-12.878-23.614-21.35-40.363-21.35
	H39.317c-4.703,0-8.514,3.812-8.514,8.514v11.667H8.514c-4.703,0-8.514,3.812-8.514,8.514v310.615c0,4.702,3.811,8.514,8.514,8.514
	h55.627c4.703,0,8.514-3.812,8.514-8.514c0-4.702-3.811-8.514-8.514-8.514H17.029V119.298h13.774v231.536v40.362
	c0,4.702,3.811,8.514,8.514,8.514h208.168v13.173H92.523c-4.703,0-8.514,3.812-8.514,8.514c0,4.702,3.811,8.514,8.514,8.514h410.962
	c4.703,0,8.514-3.812,8.514-8.514V166.636c0-4.702-3.811-8.514-8.514-8.514s-8.514,3.812-8.514,8.514v246.248H264.514V399.71
	h208.168c4.703,0,8.514-3.812,8.514-8.514v-40.362V119.298h13.774v18.956C494.971,142.956,498.782,146.769,503.486,146.769z
	 M296.363,99.116h167.805V342.32H296.363c-12.154,0-23.289,4.46-31.848,11.828V130.964
	C264.514,113.402,278.802,99.116,296.363,99.116z M47.832,99.116h167.805c17.561,0,31.848,14.287,31.848,31.848v223.184
	c-8.56-7.369-19.694-11.828-31.848-11.828H47.832V99.116z M47.832,359.349h167.805c14.612,0,26.949,9.895,30.683,23.333H47.832
	V359.349z M265.679,382.681c3.734-13.438,16.071-23.333,30.683-23.333h167.805v23.333H265.679z"/>
<g>
</g>
<g>
</g>
<g>
</g>
<g>
</g>
<g>
</g>
<g>
</g>
<g>
</g>
<g>
</g>
<g>
</g>
<g>
</g>
<g>
</g>
<g>
</g>
<g>
</g>
<g>
</g>
<g>
</g>
</svg>
