<?xml version="1.0" encoding="iso-8859-1"?>
<!-- Generator: Adobe Illustrator 19.0.0, SVG Export Plug-In . SVG Version: 6.00 Build 0)  -->
<svg version="1.1" id="Layer_1" xmlns="http://www.w3.org/2000/svg" xmlns:xlink="http://www.w3.org/1999/xlink" x="0px" y="0px"
	 viewBox="0 0 512 512" style="enable-background:new 0 0 512 512;" xml:space="preserve">
<polygon style="fill:#B09ADC;" points="480.137,105.788 256,376.072 31.863,105.788 0,105.788 0,427.088 256,427.088 512,427.088 
	512,105.788 "/>
<polyline style="fill:#CCCCCC;" points="480.137,354.097 480.137,395.848 256,395.848 31.863,395.848 31.863,354.097 "/>
<path style="fill:#F2F2F2;" d="M297.75,84.914c-7.022,0-13.634,1.726-19.435,4.791c-13.27,6.987-22.312,20.914-22.312,36.956
	l-0.004,0.02v-0.018c0-23.059-18.693-41.751-41.751-41.751H31.863v269.184h182.386c19.038,0,35.088,12.747,40.111,30.169
	l1.639,11.551c0,0.011,0.001,0.02,0.001,0.031v-0.025l0.004,0.025c0-16.041,9.042-29.968,22.312-36.956
	c5.801-3.065,12.412-4.791,19.435-4.791h182.382V84.914H297.75z"/>
<rect x="68.697" y="123.703" style="fill:#F4AAB6;" width="138.569" height="79.853"/>
<rect x="68.697" y="235.45" style="fill:#FEC95B;" width="138.569" height="79.853"/>
<rect x="304.734" y="123.703" style="fill:#62DCD2;" width="138.569" height="79.853"/>
<rect x="304.734" y="235.45" style="fill:#72CDED;" width="138.569" height="79.853"/>
<path style="fill:#E6E6E6;" d="M278.315,89.705v269.188c-13.27,6.987-22.312,20.914-22.312,36.956V126.661
	C256.004,110.62,265.046,96.692,278.315,89.705z"/>
<g>
</g>
<g>
</g>
<g>
</g>
<g>
</g>
<g>
</g>
<g>
</g>
<g>
</g>
<g>
</g>
<g>
</g>
<g>
</g>
<g>
</g>
<g>
</g>
<g>
</g>
<g>
</g>
<g>
</g>
</svg>
