<svg id="Capa_1" enable-background="new 0 0 680 680" height="680" viewBox="-100 -100 680 680" width="680" xmlns="http://www.w3.org/2000/svg"><path d="m467 372h-422c-24.813 0-45-20.187-45-45v-200c0-24.813 20.187-45 45-45h422c24.813 0 45 20.187 45 45v200c0 24.813-20.187 45-45 45z" fill="#00afff"/><path d="m467 82h-211v290h211c24.813 0 45-20.187 45-45v-200c0-24.813-20.187-45-45-45z" fill="#008cfa"/><path d="m401 217v280c0 8.284-6.716 15-15 15h-260c-8.284 0-15-6.716-15-15v-280z" fill="#e1f5ff"/><path d="m256 512h130c8.284 0 15-6.716 15-15v-280h-145z" fill="#c8e1f5"/><path d="m386 160h-260c-8.284 0-15-6.716-15-15v-130c0-8.284 6.716-15 15-15h260c8.284 0 15 6.716 15 15v130c0 8.284-6.716 15-15 15z" fill="#e1f5ff"/><path d="m386 0h-130v160h130c8.284 0 15-6.716 15-15v-130c0-8.284-6.716-15-15-15z" fill="#c8e1f5"/><circle cx="442" cy="297" fill="#ffdc1e" r="15"/><path d="m416 232h-320c-8.284 0-15-6.716-15-15s6.716-15 15-15h320c8.284 0 15 6.716 15 15s-6.716 15-15 15z" fill="#556e87"/><path d="m416 202h-160v30h160c8.284 0 15-6.716 15-15s-6.716-15-15-15z" fill="#435569"/><path d="m326 472h-140c-8.284 0-15-6.716-15-15v-10c0-46.869 38.131-85 85-85s85 38.131 85 85v10c0 8.284-6.716 15-15 15z" fill="#ff823c"/><path d="m326 472c8.284 0 15-6.716 15-15v-10c0-46.869-38.131-85-85-85v110z" fill="#f06923"/><path d="m256 392c-33.084 0-60-26.916-60-60s26.916-60 60-60 60 26.916 60 60-26.916 60-60 60z" fill="#ffd0af"/><path d="m316 332c0-33.084-26.916-60-60-60v120c33.084 0 60-26.916 60-60z" fill="#fabe8c"/></svg>