<svg id="Layer_1" enable-background="new 0 0 512 512" height="512" viewBox="-60 0 612 450" width="512" xmlns="http://www.w3.org/2000/svg"><path d="m497.752 259.471-254.775-254.775c-3.333-3.335-7.969-5.03-12.667-4.629-127.807 10.851-230.188 117.615-230.188 250.667 0 139.047 112.526 251.592 251.591 251.592 132.962 0 239.81-102.303 250.667-230.188.4-4.699-1.294-9.333-4.628-12.667z" fill="#eed572"/><path d="m110.598 250.554c-49.072-26.104-80.515-50.712-99.638-73.275-7.139 23.505-10.838 48.196-10.838 73.456 0 181.942 186.566 302.075 351.121 231.196-11.053-75.696-99.247-156.161-240.645-231.377z" fill="#fee67b"/><path d="m260.423 339.154-69.653-139.306c-5.884-11.769-22.733-11.777-28.622 0l-69.653 139.306c-5.308 10.618 2.419 23.155 14.311 23.155h139.306c11.87 0 19.628-12.518 14.311-23.155z" fill="#80b9ed"/><path d="m420.1 339.154-107.24-214.48c-5.883-11.769-22.733-11.777-28.621 0l-107.241 214.48c-5.308 10.618 2.419 23.155 14.311 23.155h214.48c11.872 0 19.629-12.521 14.311-23.155z" fill="#a2d0f9"/><path d="m497.752 259.471-254.775-254.775c-9.6-9.604-26.107-3.583-27.256 9.96-13.205 155.521 116.62 285.264 272.071 272.07 13.53-1.148 19.571-17.644 9.96-27.255z" fill="#f9e8a2"/></svg>